grf
version=1
nRows=15
nColumns=37
inDegrees=no
endheader
time	ground_force_1_vx	ground_force_1_vy	ground_force_1_vz	ground_force_1_px	ground_force_1_py	ground_force_1_pz	ground_moment_1_mx	ground_moment_1_my	ground_moment_1_mz	ground_force_2_vx	ground_force_2_vy	ground_force_2_vz	ground_force_2_px	ground_force_2_py	ground_force_2_pz	ground_moment_2_mx	ground_moment_2_my	ground_moment_2_mz	ground_force_3_vx	ground_force_3_vy	ground_force_3_vz	ground_force_3_px	ground_force_3_py	ground_force_3_pz	ground_moment_3_mx	ground_moment_3_my	ground_moment_3_mz	ground_force_4_vx	ground_force_4_vy	ground_force_4_vz	ground_force_4_px	ground_force_4_py	ground_force_4_pz	ground_moment_4_mx	ground_moment_4_my	ground_moment_4_mz
      2.12000000	      0.00000000	     -0.00000000	      0.00000000	      0.00000000	      0.00000000	      0.00000000	      0.00000000	      0.00000000	      0.00000000	     -0.84953022	     35.65081024	   -364.04156494	   -304.45849974	  -1090.22627056	      0.00000000	      0.00000000	      0.00000000	   1369.75808075	     -6.29846889	    -36.19044058	   -397.51409912	   -297.83337912	   -737.49874537	      0.00000000	      0.00000000	     -0.00000000	  -2003.24318606	      0.00000000	     -0.00000000	      0.00000000	      0.00000000	      0.00000000	      0.00000000	      0.00000000	      0.00000000	      0.00000000
      2.13000000	      0.00000000	     -0.00000000	      0.00000000	      0.00000000	      0.00000000	      0.00000000	      0.00000000	      0.00000000	      0.00000000	     -1.76211751	     35.87456894	   -363.24725342	   -303.27724688	  -1089.98950960	      0.00000000	      0.00000000	      0.00000000	   1470.70519329	     -7.47137107	    -37.00478298	   -395.93002319	   -296.38171467	   -738.46193929	      0.00000000	      0.00000000	     -0.00000000	  -1967.57035856	      0.00000000	     -0.00000000	      0.00000000	      0.00000000	      0.00000000	      0.00000000	      0.00000000	      0.00000000	      0.00000000
      2.14000000	      0.00000000	     -0.00000000	      0.00000000	      0.00000000	      0.00000000	      0.00000000	      0.00000000	      0.00000000	      0.00000000	     -2.27469301	     36.36555862	   -362.62509155	   -302.02989573	  -1090.25426697	      0.00000000	      0.00000000	      0.00000000	   1543.06873869	     -8.22983591	    -37.31667637	   -397.68969727	   -295.88101833	   -736.85905507	      0.00000000	      0.00000000	     -0.00000000	  -2083.15049721	      0.00000000	     -0.00000000	      0.00000000	      0.00000000	      0.00000000	      0.00000000	      0.00000000	      0.00000000	      0.00000000
      2.15000000	      0.00000000	     -0.00000000	      0.00000000	      0.00000000	      0.00000000	      0.00000000	      0.00000000	      0.00000000	      0.00000000	     -2.63217521	     36.27588654	   -361.56777954	   -299.77656454	  -1091.97757222	      0.00000000	     -0.00000000	      0.00000000	   1664.92966065	     -9.42527628	    -38.15496744	   -396.81280518	   -293.98482001	   -736.98337960	      0.00000000	     -0.00000000	     -0.00000000	  -2132.53916454	      0.00000000	     -0.00000000	      0.00000000	      0.00000000	      0.00000000	      0.00000000	      0.00000000	      0.00000000	      0.00000000
      2.16000000	      0.00000000	     -0.00000000	      0.00000000	      0.00000000	      0.00000000	      0.00000000	      0.00000000	      0.00000000	      0.00000000	     -3.50226688	     36.43129730	   -361.74514771	   -298.89942436	  -1092.26482164	      0.00000000	      0.00000000	      0.00000000	   1738.06599955	    -11.04478509	    -38.99431132	   -397.68597412	   -293.60077349	   -736.13931941	      0.00000000	      0.00000000	     -0.00000000	  -2073.23695512	      0.00000000	     -0.00000000	      0.00000000	      0.00000000	      0.00000000	      0.00000000	      0.00000000	      0.00000000	      0.00000000
      2.17000000	      0.00000000	     -0.00000000	      0.00000000	      0.00000000	      0.00000000	      0.00000000	      0.00000000	      0.00000000	      0.00000000	     -4.41536140	     36.29751968	   -359.00961304	   -297.07827226	  -1092.00882835	      0.00000000	      0.00000000	      0.00000000	   1624.86642607	    -12.08689743	    -38.79515351	   -395.58880615	   -292.24483241	   -737.54103788	      0.00000000	      0.00000000	     -0.00000000	  -2085.94613801	      0.00000000	     -0.00000000	      0.00000000	      0.00000000	      0.00000000	      0.00000000	      0.00000000	      0.00000000	      0.00000000
      2.18000000	      0.00000000	     -0.00000000	      0.00000000	      0.00000000	      0.00000000	      0.00000000	      0.00000000	      0.00000000	      0.00000000	     -5.39803886	     36.07513046	   -358.20800781	   -295.58762217	  -1093.06460653	      0.00000000	      0.00000000	      0.00000000	   1957.86384623	    -13.06277138	    -38.88372689	   -396.11169434	   -292.39056072	   -734.96638070	      0.00000000	      0.00000000	     -0.00000000	  -2111.48431809	      0.00000000	     -0.00000000	      0.00000000	      0.00000000	      0.00000000	      0.00000000	      0.00000000	      0.00000000	      0.00000000
      2.19000000	      0.00000000	     -0.00000000	      0.00000000	      0.00000000	      0.00000000	      0.00000000	      0.00000000	      0.00000000	      0.00000000	     -5.68664646	     35.89883804	   -354.77337646	   -293.78965067	  -1092.78212289	      0.00000000	      0.00000000	      0.00000000	   1803.38015971	    -12.68474061	    -38.97217067	   -393.84301758	   -292.03961882	   -735.94574392	      0.00000000	      0.00000000	     -0.00000000	  -2147.68450479	      0.00000000	     -0.00000000	      0.00000000	      0.00000000	      0.00000000	      0.00000000	      0.00000000	      0.00000000	      0.00000000
      2.20000000	      0.00000000	     -0.00000000	      0.00000000	      0.00000000	      0.00000000	      0.00000000	      0.00000000	      0.00000000	      0.00000000	     -5.59988213	     35.04861069	   -349.37564087	   -293.64113979	  -1093.58139795	      0.00000000	     -0.00000000	      0.00000000	   1757.54786398	    -11.62111620	    -38.64005559	   -391.05523682	   -293.61613691	   -736.37254804	      0.00000000	      0.00000000	     -0.00000000	  -2020.73595914	      0.00000000	     -0.00000000	      0.00000000	      0.00000000	      0.00000000	      0.00000000	      0.00000000	      0.00000000	      0.00000000
      2.21000000	      0.00000000	     -0.00000000	      0.00000000	      0.00000000	      0.00000000	      0.00000000	      0.00000000	      0.00000000	      0.00000000	     -4.92657280	     34.20610046	   -342.85855103	   -293.67581821	  -1093.54490832	      0.00000000	      0.00000000	      0.00000000	   1929.82463493	    -10.39993139	    -37.69081406	   -388.25659180	   -295.83333468	   -736.29299055	      0.00000000	      0.00000000	     -0.00000000	  -1919.06952563	      0.00000000	     -0.00000000	      0.00000000	      0.00000000	      0.00000000	      0.00000000	      0.00000000	      0.00000000	      0.00000000
      2.22000000	      0.00000000	     -0.00000000	      0.00000000	      0.00000000	      0.00000000	      0.00000000	      0.00000000	      0.00000000	      0.00000000	     -3.88600707	     33.30803680	   -335.09005737	   -294.71190652	  -1092.91772395	      0.00000000	      0.00000000	     -0.00000000	   1839.25619594	     -8.20456635	    -36.69884419	   -384.93502808	   -297.79386692	   -736.42828863	      0.00000000	      0.00000000	     -0.00000000	  -1989.68016507	      0.00000000	     -0.00000000	      0.00000000	      0.00000000	      0.00000000	      0.00000000	      0.00000000	      0.00000000	      0.00000000
      2.23000000	      0.00000000	     -0.00000000	      0.00000000	      0.00000000	      0.00000000	      0.00000000	      0.00000000	      0.00000000	      0.00000000	     -3.28156352	     32.11434937	   -327.76724243	   -295.23643832	  -1093.73738526	      0.00000000	     -0.00000000	      0.00000000	   1652.48276274	     -5.74330073	    -36.07796810	   -379.96710205	   -299.97445165	   -738.21783856	      0.00000000	      0.00000000	     -0.00000000	  -2094.67402502	      0.00000000	     -0.00000000	      0.00000000	      0.00000000	      0.00000000	      0.00000000	      0.00000000	      0.00000000	      0.00000000
      2.24000000	      0.00000000	     -0.00000000	      0.00000000	      0.00000000	      0.00000000	      0.00000000	      0.00000000	      0.00000000	      0.00000000	     -1.90137494	     31.40183067	   -323.17755127	   -295.62006413	  -1092.95855251	      0.00000000	      0.00000000	      0.00000000	   1808.04085716	     -4.14972087	    -35.02450525	   -376.46295166	   -302.28997447	   -738.44764407	      0.00000000	      0.00000000	     -0.00000000	  -2114.17869799	      0.00000000	     -0.00000000	      0.00000000	      0.00000000	      0.00000000	      0.00000000	      0.00000000	      0.00000000	      0.00000000
      2.25000000	      0.00000000	     -0.00000000	      0.00000000	      0.00000000	      0.00000000	      0.00000000	      0.00000000	      0.00000000	      0.00000000	     -2.51138926	     31.51011086	   -319.16146851	   -295.82333735	  -1094.58719954	      0.00000000	      0.00000000	      0.00000000	   1568.49620888	     -2.85805551	    -34.48771642	   -371.05712891	   -304.86840512	   -739.90570343	      0.00000000	      0.00000000	     -0.00000000	  -1999.24105364	      0.00000000	     -0.00000000	      0.00000000	      0.00000000	      0.00000000	      0.00000000	      0.00000000	      0.00000000	      0.00000000
      2.26000000	      0.00000000	     -0.00000000	      0.00000000	      0.00000000	      0.00000000	      0.00000000	      0.00000000	      0.00000000	      0.00000000	     -3.17685175	     30.73184395	   -314.23638916	   -294.40779699	  -1095.33655495	      0.00000000	      0.00000000	      0.00000000	   1583.92812629	     -2.03603774	    -33.32043058	   -367.39904785	   -307.13603972	   -739.71844550	      0.00000000	      0.00000000	     -0.00000000	  -2030.93265219	      0.00000000	     -0.00000000	      0.00000000	      0.00000000	      0.00000000	      0.00000000	      0.00000000	      0.00000000	      0.00000000
